<svg width="100%" height="100%" class="w-auto h-9 xl:w-28 xl:h-auto text-green-dark group-data-menu-opened/header:text-white lg:group-data-menu-opened/header:text-green-dark" fill="none" xmlns="http://www.w3.org/2000/svg" viewBox="0 0 116 54"><g clip-path="url(#a)"><path d="m59.135 1.765 9.598 7.56h.309V1.536h-9.907v.228Z" fill="#00E1FF"></path><path d="M69.828 29.775c-.346-6.72-3.98-9.47-9.488-12.902-5.689-3.49-8.432-5.338-8.626-9.136-.11-2.16 1.132-4.584 2.736-5.967v-.233c-6.821 1.184-10.54 5.64-10.193 12.411.32 6.232 5.348 9.295 10.135 12.48 3.96 2.636 8.036 5.099 8.036 13.11v2.643c4.623-2.238 7.639-7.71 7.397-12.406h.003Z" fill="url(#b)"></path><path d="M39.414 36.514V1.537h-11.24v.374c2.47 2.44 2.84 3.193 2.84 5.444v29.16c0 2-.433 2.69-2.534 4.63v.375h13.466v-.374c-2.102-1.94-2.534-2.628-2.534-4.632h.002ZM74.238 41.143v.374h13.466v-.374c-2.1-1.94-2.532-2.628-2.532-4.632v-22.65H74.115v.376c2.285 2.315 2.657 2.941 2.657 5.07v17.207c0 2.001-.433 2.691-2.534 4.632v-.003ZM116 24.812c0-6.57-4.137-11.575-11.985-11.575-8.77 0-13.712 6.256-13.712 14.58 0 8.323 4.57 14.33 13.838 14.33 6.362 0 10.316-3.13 11.676-7.947l-.31-.189c-1.666 2.315-4.386 3.878-8.217 3.878-6.008 0-8.183-3.822-8.214-10.301h16.801c.063-.502.123-1.9.123-2.774v-.002Zm-8.34.875h-8.587v-2.94c0-5.131.988-7.982 4.572-7.982 3.336 0 4.015 2.227 4.015 6.795v4.13-.003ZM84.307 8.726a5.159 5.159 0 0 0 0-7.23 5.001 5.001 0 0 0-7.137 0 5.159 5.159 0 0 0 0 7.23 5.001 5.001 0 0 0 7.137 0ZM13.712 13.237C4.942 13.237 0 19.493 0 27.817c0 8.323 4.57 14.33 13.838 14.33 6.362 0 10.316-3.13 11.676-7.947l-.31-.189c-1.666 2.315-4.386 3.878-8.217 3.878-6.008 0-8.214-3.822-8.214-10.301h16.801c.063-.502.123-1.9.123-2.774 0-6.569-4.137-11.575-11.985-11.575v-.002Zm3.645 12.45H8.77v-2.94c0-5.131.988-7.982 4.572-7.982 3.336 0 4.015 2.227 4.015 6.795v4.13-.003ZM77.558 50.151c-1.224-.297-1.517-.517-1.517-1.027 0-.435.382-.778 1.04-.778.584 0 1.16.231 1.734.667l.603-.86c-.647-.529-1.389-.815-2.321-.815-1.271 0-2.183.759-2.183 1.887 0 1.202.768 1.611 2.128 1.943 1.186.279 1.443.528 1.443 1 0 .5-.437.823-1.132.823-.794 0-1.407-.305-2.02-.841l-.676.815a3.906 3.906 0 0 0 2.668 1.038c1.341 0 2.284-.722 2.284-1.943 0-1.083-.702-1.574-2.054-1.906l.003-.003ZM85.44 47.383l-2.814 6.524h1.15l.657-1.563h3.024l.648 1.563h1.186l-2.814-6.524h-1.043.006Zm-.595 3.952 1.095-2.59 1.106 2.59h-2.201ZM97.234 51.909l-3.428-4.478h-1.04v6.476h1.106V49.3l3.524 4.607h.94v-6.476h-1.102v4.478ZM101.9 48.485h2.028v5.422h1.132v-5.422h2.028V47.43H101.9v1.054ZM111.774 51.15h3.207v-1.017h-3.207v-1.686h3.618v-1.016h-1.978l.933-.892-1.248-.03-.61.922h-1.84v6.476h4.788v-1.016h-3.663v-1.742Z" fill="#005F6D"></path></g><defs><linearGradient id="b" x1="73.604" y1="34.922" x2="43.562" y2="9.701" gradientUnits="userSpaceOnUse"><stop offset=".08" stop-color="#7BDC00"></stop><stop offset=".55" stop-color="#00E8B8"></stop><stop offset=".85" stop-color="#00E1FF"></stop></linearGradient><clipPath id="a"><path fill="#fff" d="M0 0h116v54H0z"></path></clipPath></defs></svg>
